<svg xmlns="http://www.w3.org/2000/svg" viewBox="0 0 286.3 83.2"><defs><style>.cls-1{fill:#fff;}</style></defs><g id="Layer_2" data-name="Layer 2"><g id="Layer_1-2" data-name="Layer 1"><path class="cls-1" d="M123.5,34.4h-5.3V46.5l-2.7.2-2.6-.2V12.6l.3-.3,10.3-.2c6.7,0,11.5,3.7,11.5,11.2S130.2,34.4,123.5,34.4Zm-5.3-4.2h5.1c5,0,6.1-3.9,6.1-6.9s-1.1-6.9-6.1-6.9h-5.1Z"/><path class="cls-1" d="M141.2,21.4a5.9,5.9,0,0,1,4.5,4.5c1.2-2.6,3.2-4.5,6.6-4.5a11.5,11.5,0,0,1,2.6.3,9.9,9.9,0,0,1-1.2,4.9,7.5,7.5,0,0,0-2.1-.2c-2.7,0-4.3,1.7-5.3,3.8V46.5l-2.6.2-2.6-.2V29.3a7.2,7.2,0,0,0-1.8-5.1A4.9,4.9,0,0,1,141.2,21.4Z"/><path class="cls-1" d="M175.4,44.4a9.9,9.9,0,0,1-7.2,2.7,10.1,10.1,0,0,1-7.3-2.7c-2.6-2.7-3.5-6.1-3.5-10.3s.9-7.6,3.5-10.2a9.8,9.8,0,0,1,7.3-2.8,9.6,9.6,0,0,1,7.2,2.8c2.7,2.6,3.6,6.1,3.6,10.2S178.1,41.7,175.4,44.4Zm-7.2-1.2c4.3,0,5.5-4.4,5.5-9.1s-1.2-9-5.5-9-5.5,4.4-5.5,9S163.9,43.2,168.2,43.2Z"/><path class="cls-1" d="M195.9,46.9a12.2,12.2,0,0,1-5.7-1.6v8.6c0,2.3-.7,3.3-2.8,3.3h-2l-.3-.3v-35l.3-.3H187a2.8,2.8,0,0,1,3,2.5,9.8,9.8,0,0,1,6.9-3c5.7,0,8.6,5.2,8.6,12.7C205.5,42.8,200.7,46.9,195.9,46.9Zm-5.7-18.2V41a9.2,9.2,0,0,0,5,1.8c2.8,0,5-2.9,5-9s-2.1-8.3-4.5-8.3A6.9,6.9,0,0,0,190.2,28.7Z"/><path class="cls-1" d="M222.9,12.1c7.4,0,10.9,3.4,10.9,9.1a7.5,7.5,0,0,1-4.7,7,9.2,9.2,0,0,1,6.4,8.7c0,5.6-3.6,9.8-11.9,9.8l-11.1-.2-.3-.3V12.6l.3-.3Zm-5.4,14.4h5.2c4.7,0,5.8-2.8,5.8-5.2s-1-5.1-5.7-5.1h-5.3Zm0,4.1V42.7h6c5.4,0,6.5-3.4,6.5-6s-1.4-6-6.8-6Z"/><path class="cls-1" d="M258.2,44.4a10.1,10.1,0,0,1-7.3,2.7,9.9,9.9,0,0,1-7.2-2.7c-2.7-2.7-3.6-6.1-3.6-10.3s.9-7.6,3.6-10.2a9.6,9.6,0,0,1,7.2-2.8,9.8,9.8,0,0,1,7.3,2.8c2.6,2.6,3.5,6.1,3.5,10.2S260.8,41.7,258.2,44.4Zm-7.3-1.2c4.3,0,5.5-4.4,5.5-9.1s-1.2-9-5.5-9-5.4,4.4-5.4,9S246.6,43.2,250.9,43.2Z"/><path class="cls-1" d="M282.6,21.6a8.5,8.5,0,0,1,2.5.3l.2.4-7.1,11.1,8.1,12.3a7.7,7.7,0,0,1-3.6,1.2,3,3,0,0,1-2.7-1.6l-5-7.6-5.4,8.8a6.5,6.5,0,0,1-2.1.2,7.3,7.3,0,0,1-2.7-.4v-.4l7.8-12.2-7.2-11.1a5.9,5.9,0,0,1,3.5-1.2,2.9,2.9,0,0,1,2.7,1.5l4.2,6.6,4.8-7.7Z"/><path class="cls-1" d="M121,70.7a9.5,9.5,0,0,1-3,.4c-3.8,0-5.7-1.9-5.7-5.6s1.9-5.4,5.7-5.4a9.4,9.4,0,0,1,3,.5v1.2a7.1,7.1,0,0,0-2.9-.5c-2.9,0-4.4,1.4-4.4,4.2s1.5,4.5,4.4,4.5a9.3,9.3,0,0,0,2.9-.5Z"/><path class="cls-1" d="M130,63.1v8h-.9l-.3-1.1a4.8,4.8,0,0,1-2.9,1.1q-2.7,0-2.7-3v-5h1.4v5c0,1.2.6,1.8,1.7,1.8a3.7,3.7,0,0,0,2.3-1V63.1Z"/><path class="cls-1" d="M132.3,70.7V69.5a8.6,8.6,0,0,0,2.8.4c1.3,0,1.9-.4,1.9-1.1s-.4-1.1-1.3-1.1h-1.2c-1.7,0-2.6-.8-2.6-2.3s1.2-2.3,3.4-2.3a9,9,0,0,1,2.8.4v1.2a9.2,9.2,0,0,0-2.8-.5c-1.4,0-2,.4-2,1.2s.4,1,1.2,1h1.2q2.7,0,2.7,2.4c0,1.5-1.1,2.3-3.3,2.3A12.6,12.6,0,0,1,132.3,70.7Z"/><path class="cls-1" d="M140.3,61.8h.9l.3,1.3h2.1v1.1h-1.9v4.6c0,.7.3,1.1,1,1.1h.9v1.2h-1.3c-1.3,0-2-.8-2-2.2Z"/><path class="cls-1" d="M145.1,67.1c0-2.7,1.2-4,3.8-4s3.8,1.3,3.8,4-1.3,3.9-3.8,3.9S145.1,69.7,145.1,67.1Zm3.8,2.8c1.5,0,2.3-.9,2.3-2.9s-.8-2.8-2.3-2.8-2.4,1-2.4,2.8S147.3,69.9,148.9,69.9Z"/><path class="cls-1" d="M154.6,71.1v-8h.9l.2,1a3.6,3.6,0,0,1,2.5-1c1.2,0,2,.3,2.4,1.1a3.7,3.7,0,0,1,2.6-1.1c1.9,0,2.8,1,2.8,3v5h-1.4V66q0-1.8-1.5-1.8a2.8,2.8,0,0,0-2.1,1.1v5.8h-1.4v-5c0-1.3-.5-1.9-1.5-1.9a2.8,2.8,0,0,0-2.1,1.1v5.8Z"/><path class="cls-1" d="M172.2,71.1V60.2h4.4c2.2,0,3.3,1,3.3,2.9s-1.5,3.4-4.5,3.9l-.3-1.2c2.2-.3,3.4-1.2,3.4-2.6s-.7-1.8-2-1.8h-2.9v9.7Z"/><path class="cls-1" d="M181.7,71.1v-8h.9l.3,1a3.3,3.3,0,0,1,2.5-1v1.1a2.8,2.8,0,0,0-2.3,1.1v5.8Z"/><path class="cls-1" d="M186.4,67.1c0-2.7,1.3-4,3.8-4s3.8,1.3,3.8,4-1.3,3.9-3.8,3.9S186.4,69.7,186.4,67.1Zm3.8,2.8c1.6,0,2.4-.9,2.4-2.9s-.8-2.8-2.4-2.8-2.4,1-2.4,2.8S188.6,69.9,190.2,69.9Z"/><path class="cls-1" d="M195.9,63.4a18.4,18.4,0,0,1,3.3-.3c2.5,0,3.8,1.2,3.8,3.8s-1.3,4.2-3.8,4.2a5.8,5.8,0,0,1-1.9-.4v3.2h-1.4Zm1.4,6a4.1,4.1,0,0,0,1.9.4c1.6,0,2.4-1,2.4-2.9s-.8-2.7-2.4-2.7l-1.9.2Z"/><path class="cls-1" d="M208.9,71.1V60.2h1.8l3.9,9.1,4-9.1h1.7V71.1H219v-9l-3.8,9H214l-3.9-9v9Z"/><path class="cls-1" d="M222.3,68.6q0-2.4,3.3-2.4h2v-.7c0-.9-.7-1.4-2.1-1.4a7.3,7.3,0,0,0-2.5.4V63.5a7.3,7.3,0,0,1,2.5-.4c2.4,0,3.5.8,3.5,2.5v5.5h-.7l-.5-.8a5,5,0,0,1-2.6.8C223.3,71.1,222.3,70.3,222.3,68.6Zm3.3-1.3c-1.3,0-1.9.5-1.9,1.3s.5,1.3,1.5,1.3a3.3,3.3,0,0,0,2.4-.8V67.5Z"/><path class="cls-1" d="M231.3,71.1V60.2h1.4v3.5a6,6,0,0,1,2.7-.6c2,0,3,.7,3,2.3s-.8,1.9-2.3,2.3l2.6,3.4h-1.8l-2.6-3.4V67c1.8-.1,2.7-.7,2.7-1.6s-.6-1.2-1.7-1.2a6.3,6.3,0,0,0-2.6.7v6.2Z"/><path class="cls-1" d="M243.6,63.1c2.3,0,3.4,1.1,3.4,3.3a4.1,4.1,0,0,1-.1,1.1h-5.6c0,1.6,1,2.4,2.9,2.4a8.8,8.8,0,0,0,2.4-.3v1.2a9.8,9.8,0,0,1-2.6.3c-2.7,0-4.1-1.4-4.1-4.1S241.1,63.1,243.6,63.1Zm-2.3,3.2h4.3a1.8,1.8,0,0,0-2-2.1A2.1,2.1,0,0,0,241.3,66.3Z"/><path class="cls-1" d="M248.9,71.1v-8h.9l.3,1a3.3,3.3,0,0,1,2.5-1v1.1a2.8,2.8,0,0,0-2.3,1.1v5.8Z"/><path class="cls-1" d="M80.3,2.8h0A9.5,9.5,0,0,0,73.6,0H9.6A10,10,0,0,0,2.8,2.8h0A10,10,0,0,0,0,9.6v64a9.5,9.5,0,0,0,2.8,6.7h0a9.6,9.6,0,0,0,6.8,2.9h25l.8-1,5.9-7.4,5.9,7.5.8,1H73.6a9.2,9.2,0,0,0,6.7-2.9h0a9.2,9.2,0,0,0,2.9-6.7V9.6A9.6,9.6,0,0,0,80.3,2.8ZM35.4,58.5A205.1,205.1,0,0,1,21.6,38.3a17.2,17.2,0,0,1-2.5-8.6,10.4,10.4,0,0,1,1.3-5.3A9.1,9.1,0,0,1,24,20.7a12.9,12.9,0,0,1,6.6-1.5,11.9,11.9,0,0,1,7,2.2,17.1,17.1,0,0,0-1.7,16.2,17.7,17.7,0,0,0,3.5,5.5l1.9,2,1.9-2a17.7,17.7,0,0,0,3.5-5.5,17.6,17.6,0,0,0-1.8-16.2A12.2,12.2,0,0,1,52,19.2a13.2,13.2,0,0,1,6.6,1.5,9.1,9.1,0,0,1,3.6,3.7,11.5,11.5,0,0,1,1.3,5.3A17.2,17.2,0,0,1,61,38.3,210.9,210.9,0,0,1,47.2,58.5l-5.9,7.6ZM40,31.2a11.2,11.2,0,0,1,1.3-5.5,12.4,12.4,0,0,1,.5,9.9,11.7,11.7,0,0,1-.5,1.1,3.7,3.7,0,0,1-.5-1.1A12.3,12.3,0,0,1,40,31.2ZM77.8,73.6a4.1,4.1,0,0,1-4.2,4.2h-23l-5.9-7.5,6.7-8.7A223.4,223.4,0,0,0,65.6,40.9a23,23,0,0,0,3.2-11.2,17,17,0,0,0-1.9-7.8,14.4,14.4,0,0,0-5.7-5.8A18.7,18.7,0,0,0,52,13.9a17,17,0,0,0-10.7,3.6,17.5,17.5,0,0,0-10.7-3.6,18.7,18.7,0,0,0-9.2,2.2,14.4,14.4,0,0,0-5.7,5.8,15.8,15.8,0,0,0-1.9,7.8,22.9,22.9,0,0,0,3.1,11.2A248.5,248.5,0,0,0,31.2,61.7l6.7,8.7L32,77.8H9.6a3.9,3.9,0,0,1-3-1.2,4.3,4.3,0,0,1-1.3-3V9.6a4,4,0,0,1,1.3-3,4,4,0,0,1,3-1.3h64a4.3,4.3,0,0,1,3,1.3,3.9,3.9,0,0,1,1.2,3Z"/><rect class="cls-1" x="37.1" width="8.3" height="10.5"/><rect class="cls-1" x="40.9" width="0.7" height="11.37"/></g></g></svg>