<?xml version="1.0" standalone="no"?>
<!DOCTYPE svg PUBLIC "-//W3C//DTD SVG 20010904//EN"
 "http://www.w3.org/TR/2001/REC-SVG-20010904/DTD/svg10.dtd">
<svg version="1.0" xmlns="http://www.w3.org/2000/svg"
 width="700.000000pt" height="700.000000pt" viewBox="0 0 700.000000 700.000000"
 preserveAspectRatio="xMidYMid meet">
<metadata>
Created by potrace 1.14, written by Peter Selinger 2001-2017
</metadata>
<g transform="translate(0.000000,700.000000) scale(0.100000,-0.100000)"
fill="#000000" stroke="none">
<path d="M635 6984 c-255 -60 -479 -252 -578 -494 -61 -148 -57 66 -54 -3015
l2 -2820 22 -70 c80 -250 265 -443 513 -534 119 -43 134 -44 1279 -45 l1094
-1 216 270 c119 149 243 307 276 352 33 45 63 82 67 83 4 0 96 -111 204 -247
108 -137 235 -295 281 -353 l84 -105 1137 1 c1123 2 1138 2 1217 23 246 65
457 242 545 460 59 145 55 -69 55 3006 0 2283 -3 2840 -13 2880 -52 200 -148
343 -317 470 -86 65 -167 104 -270 131 l-90 23 -2805 0 c-2393 -1 -2814 -3
-2865 -15z m5664 -453 c118 -37 214 -136 243 -251 11 -46 13 -520 12 -2795
l-1 -2740 -21 -54 c-43 -110 -114 -181 -220 -222 l-57 -22 -985 -1 c-542 -1
-992 1 -1001 4 -16 5 -73 74 -391 472 l-117 147 186 243 c309 402 690 912 822
1098 69 96 137 192 153 213 63 82 399 592 492 747 235 390 316 592 361 895 82
546 -130 1063 -544 1330 -257 166 -545 245 -870 240 -127 -2 -173 -7 -289 -30
-190 -37 -402 -134 -588 -270 -9 -6 -20 -3 -36 11 -73 65 -268 168 -406 214
-162 54 -279 72 -467 73 -287 1 -509 -51 -748 -175 -328 -171 -564 -498 -643
-891 -19 -94 -25 -326 -13 -437 33 -281 127 -558 270 -798 224 -374 555 -873
823 -1242 131 -181 648 -867 798 -1059 l127 -163 -37 -46 c-20 -26 -42 -53
-49 -62 -7 -8 -85 -107 -174 -220 -89 -113 -178 -225 -198 -250 l-36 -45 -965
1 c-531 0 -981 4 -1000 9 -120 27 -218 118 -260 241 -19 55 -20 116 -20 2784
0 1813 3 2745 10 2781 25 133 110 229 238 270 54 17 184 18 2799 18 2654 1
2743 0 2802 -18z m-3594 -1156 c128 -15 282 -68 395 -136 l67 -40 -46 -78 -46
-78 -60 30 c-252 126 -567 147 -836 57 -287 -96 -449 -250 -540 -515 l-28 -80
5 60 c18 202 116 420 246 542 196 183 527 277 843 238z m1840 0 c259 -31 495
-154 618 -323 116 -159 170 -325 172 -537 2 -179 -7 -247 -18 -125 -20 222
-98 394 -246 540 -97 96 -186 149 -336 199 -258 86 -577 71 -807 -39 l-59 -27
-39 66 -39 66 22 17 c43 33 160 90 243 118 148 50 314 66 489 45z"/>
</g>
</svg>
